solid STL
  facet normal  1.000000e+000  -0.000000e+000  0.000000e+000
    outer loop
      vertex  1.000000e+001  5.000000e+001  5.000000e+001
      vertex  1.000000e+001 -5.000000e+001  5.000000e+001
      vertex  1.000000e+001  5.000000e+001 -7.105427e-015
    endloop
  endfacet
  facet normal  1.000000e+000  0.000000e+000  0.000000e+000
    outer loop
      vertex  1.000000e+001  5.000000e+001 -7.105427e-015
      vertex  1.000000e+001 -5.000000e+001  5.000000e+001
      vertex  1.000000e+001 -5.000000e+001  0.000000e+000
    endloop
  endfacet
  facet normal  1.000000e+000  0.000000e+000  0.000000e+000
    outer loop
      vertex  1.000000e+001  5.000000e+001 -7.105427e-015
      vertex  1.000000e+001 -5.000000e+001  0.000000e+000
      vertex  1.000000e+001  0.000000e+000 -5.000000e+001
    endloop
  endfacet
  facet normal  0.000000e+000  0.000000e+000 -1.000000e+000
    outer loop
      vertex -2.500000e+001 -5.000000e+001 -3.000000e+001
      vertex -3.500000e+001 -5.000000e+001 -3.000000e+001
      vertex -2.500000e+001  5.000000e+001 -3.000000e+001
    endloop
  endfacet
  facet normal  -0.000000e+000  0.000000e+000 -1.000000e+000
    outer loop
      vertex -2.500000e+001  5.000000e+001 -3.000000e+001
      vertex -3.500000e+001 -5.000000e+001 -3.000000e+001
      vertex -3.500000e+001  5.000000e+001 -3.000000e+001
    endloop
  endfacet
  facet normal  0.000000e+000 -1.000000e+000  0.000000e+000
    outer loop
      vertex -3.500000e+001 -5.000000e+001 -3.000000e+001
      vertex -2.500000e+001 -5.000000e+001 -3.000000e+001
      vertex -3.500000e+001 -5.000000e+001  5.000000e+001
    endloop
  endfacet
  facet normal  0.000000e+000 -1.000000e+000  0.000000e+000
    outer loop
      vertex -3.500000e+001 -5.000000e+001  5.000000e+001
      vertex -2.500000e+001 -5.000000e+001 -3.000000e+001
      vertex -2.500000e+001 -5.000000e+001  5.000000e+000
    endloop
  endfacet
  facet normal  0.000000e+000 -1.000000e+000  0.000000e+000
    outer loop
      vertex -3.500000e+001 -5.000000e+001  5.000000e+001
      vertex -2.500000e+001 -5.000000e+001  5.000000e+000
      vertex  1.000000e+001 -5.000000e+001  5.000000e+001
    endloop
  endfacet
  facet normal  0.000000e+000 -1.000000e+000  0.000000e+000
    outer loop
      vertex  1.000000e+001 -5.000000e+001  5.000000e+001
      vertex -2.500000e+001 -5.000000e+001  5.000000e+000
      vertex  0.000000e+000 -5.000000e+001  5.000000e+000
    endloop
  endfacet
  facet normal  0.000000e+000 -1.000000e+000  0.000000e+000
    outer loop
      vertex  1.000000e+001 -5.000000e+001  5.000000e+001
      vertex  0.000000e+000 -5.000000e+001  5.000000e+000
      vertex  1.000000e+001 -5.000000e+001  0.000000e+000
    endloop
  endfacet
  facet normal  0.000000e+000 -1.000000e+000  0.000000e+000
    outer loop
      vertex  1.000000e+001 -5.000000e+001  0.000000e+000
      vertex  0.000000e+000 -5.000000e+001  5.000000e+000
      vertex  0.000000e+000 -5.000000e+001  0.000000e+000
    endloop
  endfacet
  facet normal -1.000000e+000  -0.000000e+000  0.000000e+000
    outer loop
      vertex -3.500000e+001 -5.000000e+001  5.000000e+001
      vertex -3.500000e+001 -4.000000e+001  5.000000e+001
      vertex -3.500000e+001 -5.000000e+001 -3.000000e+001
    endloop
  endfacet
  facet normal -1.000000e+000  0.000000e+000  0.000000e+000
    outer loop
      vertex -3.500000e+001 -5.000000e+001 -3.000000e+001
      vertex -3.500000e+001 -4.000000e+001  5.000000e+001
      vertex -3.500000e+001 -4.000000e+001  1.500000e+001
    endloop
  endfacet
  facet normal -1.000000e+000  0.000000e+000  -0.000000e+000
    outer loop
      vertex -3.500000e+001 -5.000000e+001 -3.000000e+001
      vertex -3.500000e+001 -4.000000e+001  1.500000e+001
      vertex -3.500000e+001  5.000000e+001 -3.000000e+001
    endloop
  endfacet
  facet normal -1.000000e+000  0.000000e+000  0.000000e+000
    outer loop
      vertex -3.500000e+001  5.000000e+001 -3.000000e+001
      vertex -3.500000e+001 -4.000000e+001  1.500000e+001
      vertex -3.500000e+001  4.000000e+001  1.500000e+001
    endloop
  endfacet
  facet normal -1.000000e+000  0.000000e+000  0.000000e+000
    outer loop
      vertex -3.500000e+001  5.000000e+001 -3.000000e+001
      vertex -3.500000e+001  4.000000e+001  1.500000e+001
      vertex -3.500000e+001  5.000000e+001  5.000000e+001
    endloop
  endfacet
  facet normal -1.000000e+000  -0.000000e+000  0.000000e+000
    outer loop
      vertex -3.500000e+001  5.000000e+001  5.000000e+001
      vertex -3.500000e+001  4.000000e+001  1.500000e+001
      vertex -3.500000e+001  4.000000e+001  5.000000e+001
    endloop
  endfacet
  facet normal  0.000000e+000  0.000000e+000  1.000000e+000
    outer loop
      vertex -3.500000e+001 -4.000000e+001  5.000000e+001
      vertex -3.500000e+001 -5.000000e+001  5.000000e+001
      vertex  0.000000e+000 -4.000000e+001  5.000000e+001
    endloop
  endfacet
  facet normal  0.000000e+000  0.000000e+000  1.000000e+000
    outer loop
      vertex  0.000000e+000 -4.000000e+001  5.000000e+001
      vertex -3.500000e+001 -5.000000e+001  5.000000e+001
      vertex  1.000000e+001 -5.000000e+001  5.000000e+001
    endloop
  endfacet
  facet normal  0.000000e+000  0.000000e+000  1.000000e+000
    outer loop
      vertex  0.000000e+000 -4.000000e+001  5.000000e+001
      vertex  1.000000e+001 -5.000000e+001  5.000000e+001
      vertex  7.105427e-015  4.000000e+001  5.000000e+001
    endloop
  endfacet
  facet normal  -0.000000e+000  0.000000e+000  1.000000e+000
    outer loop
      vertex  7.105427e-015  4.000000e+001  5.000000e+001
      vertex  1.000000e+001 -5.000000e+001  5.000000e+001
      vertex  1.000000e+001  5.000000e+001  5.000000e+001
    endloop
  endfacet
  facet normal  0.000000e+000  0.000000e+000  1.000000e+000
    outer loop
      vertex  7.105427e-015  4.000000e+001  5.000000e+001
      vertex  1.000000e+001  5.000000e+001  5.000000e+001
      vertex -3.500000e+001  4.000000e+001  5.000000e+001
    endloop
  endfacet
  facet normal  0.000000e+000  0.000000e+000  1.000000e+000
    outer loop
      vertex -3.500000e+001  4.000000e+001  5.000000e+001
      vertex  1.000000e+001  5.000000e+001  5.000000e+001
      vertex -3.500000e+001  5.000000e+001  5.000000e+001
    endloop
  endfacet
  facet normal  0.000000e+000  1.000000e+000  -0.000000e+000
    outer loop
      vertex  1.000000e+001  5.000000e+001  5.000000e+001
      vertex  1.000000e+001  5.000000e+001 -7.105427e-015
      vertex  0.000000e+000  5.000000e+001 -7.105427e-015
    endloop
  endfacet
  facet normal  0.000000e+000  1.000000e+000  0.000000e+000
    outer loop
      vertex  1.000000e+001  5.000000e+001  5.000000e+001
      vertex  0.000000e+000  5.000000e+001 -7.105427e-015
      vertex  0.000000e+000  5.000000e+001  5.000000e+000
    endloop
  endfacet
  facet normal  0.000000e+000  1.000000e+000  -0.000000e+000
    outer loop
      vertex  1.000000e+001  5.000000e+001  5.000000e+001
      vertex  0.000000e+000  5.000000e+001  5.000000e+000
      vertex -2.500000e+001  5.000000e+001  5.000000e+000
    endloop
  endfacet
  facet normal  0.000000e+000  1.000000e+000  -0.000000e+000
    outer loop
      vertex  1.000000e+001  5.000000e+001  5.000000e+001
      vertex -2.500000e+001  5.000000e+001  5.000000e+000
      vertex -3.500000e+001  5.000000e+001  5.000000e+001
    endloop
  endfacet
  facet normal  0.000000e+000  1.000000e+000  0.000000e+000
    outer loop
      vertex -3.500000e+001  5.000000e+001  5.000000e+001
      vertex -2.500000e+001  5.000000e+001  5.000000e+000
      vertex -3.500000e+001  5.000000e+001 -3.000000e+001
    endloop
  endfacet
  facet normal  0.000000e+000  1.000000e+000  0.000000e+000
    outer loop
      vertex -3.500000e+001  5.000000e+001 -3.000000e+001
      vertex -2.500000e+001  5.000000e+001  5.000000e+000
      vertex -2.500000e+001  5.000000e+001 -3.000000e+001
    endloop
  endfacet
  facet normal  0.000000e+000  0.000000e+000  1.000000e+000
    outer loop
      vertex -3.500000e+001 -4.000000e+001  1.500000e+001
      vertex  0.000000e+000 -4.000000e+001  1.500000e+001
      vertex -3.500000e+001  4.000000e+001  1.500000e+001
    endloop
  endfacet
  facet normal  -0.000000e+000  0.000000e+000  1.000000e+000
    outer loop
      vertex -3.500000e+001  4.000000e+001  1.500000e+001
      vertex  0.000000e+000 -4.000000e+001  1.500000e+001
      vertex  0.000000e+000  4.000000e+001  1.500000e+001
    endloop
  endfacet
  facet normal -1.000000e+000  0.000000e+000  2.030122e-016
    outer loop
      vertex  0.000000e+000  4.000000e+001  1.500000e+001
      vertex  0.000000e+000 -4.000000e+001  1.500000e+001
      vertex  7.105427e-015  4.000000e+001  5.000000e+001
    endloop
  endfacet
  facet normal -1.000000e+000  8.881784e-017  0.000000e+000
    outer loop
      vertex  7.105427e-015  4.000000e+001  5.000000e+001
      vertex  0.000000e+000 -4.000000e+001  1.500000e+001
      vertex  0.000000e+000 -4.000000e+001  5.000000e+001
    endloop
  endfacet
  facet normal  0.000000e+000 -1.000000e+000  0.000000e+000
    outer loop
      vertex -3.500000e+001  4.000000e+001  1.500000e+001
      vertex  0.000000e+000  4.000000e+001  1.500000e+001
      vertex -3.500000e+001  4.000000e+001  5.000000e+001
    endloop
  endfacet
  facet normal  0.000000e+000 -1.000000e+000  0.000000e+000
    outer loop
      vertex -3.500000e+001  4.000000e+001  5.000000e+001
      vertex  0.000000e+000  4.000000e+001  1.500000e+001
      vertex  7.105427e-015  4.000000e+001  5.000000e+001
    endloop
  endfacet
  facet normal  0.000000e+000  1.000000e+000  0.000000e+000
    outer loop
      vertex  0.000000e+000 -4.000000e+001  1.500000e+001
      vertex -3.500000e+001 -4.000000e+001  1.500000e+001
      vertex  0.000000e+000 -4.000000e+001  5.000000e+001
    endloop
  endfacet
  facet normal  0.000000e+000  1.000000e+000  0.000000e+000
    outer loop
      vertex  0.000000e+000 -4.000000e+001  5.000000e+001
      vertex -3.500000e+001 -4.000000e+001  1.500000e+001
      vertex -3.500000e+001 -4.000000e+001  5.000000e+001
    endloop
  endfacet
  facet normal  1.000000e+000  0.000000e+000  0.000000e+000
    outer loop
      vertex -2.500000e+001 -5.000000e+001 -3.000000e+001
      vertex -2.500000e+001  5.000000e+001 -3.000000e+001
      vertex -2.500000e+001  3.750000e+001  1.776357e-015
    endloop
  endfacet
  facet normal  1.000000e+000  0.000000e+000  0.000000e+000
    outer loop
      vertex -2.500000e+001 -5.000000e+001 -3.000000e+001
      vertex -2.500000e+001  3.750000e+001  1.776357e-015
      vertex -2.500000e+001 -3.750000e+001  1.776357e-015
    endloop
  endfacet
  facet normal  1.000000e+000  0.000000e+000  0.000000e+000
    outer loop
      vertex -2.500000e+001 -5.000000e+001 -3.000000e+001
      vertex -2.500000e+001 -3.750000e+001  1.776357e-015
      vertex -2.500000e+001 -3.837156e+001  3.805302e-002
    endloop
  endfacet
  facet normal  1.000000e+000  0.000000e+000  0.000000e+000
    outer loop
      vertex -2.500000e+001 -5.000000e+001 -3.000000e+001
      vertex -2.500000e+001 -3.837156e+001  3.805302e-002
      vertex -2.500000e+001 -3.923648e+001  1.519225e-001
    endloop
  endfacet
  facet normal  1.000000e+000  0.000000e+000  0.000000e+000
    outer loop
      vertex -2.500000e+001 -5.000000e+001 -3.000000e+001
      vertex -2.500000e+001 -3.923648e+001  1.519225e-001
      vertex -2.500000e+001 -4.008819e+001  3.407417e-001
    endloop
  endfacet
  facet normal  1.000000e+000  0.000000e+000  0.000000e+000
    outer loop
      vertex -2.500000e+001 -5.000000e+001 -3.000000e+001
      vertex -2.500000e+001 -4.008819e+001  3.407417e-001
      vertex -2.500000e+001 -4.092020e+001  6.030738e-001
    endloop
  endfacet
  facet normal  1.000000e+000  0.000000e+000  0.000000e+000
    outer loop
      vertex -2.500000e+001 -5.000000e+001 -3.000000e+001
      vertex -2.500000e+001 -4.092020e+001  6.030738e-001
      vertex -2.500000e+001 -4.172618e+001  9.369221e-001
    endloop
  endfacet
  facet normal  1.000000e+000  0.000000e+000  0.000000e+000
    outer loop
      vertex -2.500000e+001 -5.000000e+001 -3.000000e+001
      vertex -2.500000e+001 -4.172618e+001  9.369221e-001
      vertex -2.500000e+001 -4.250000e+001  1.339746e+000
    endloop
  endfacet
  facet normal  1.000000e+000  0.000000e+000  0.000000e+000
    outer loop
      vertex -2.500000e+001 -5.000000e+001 -3.000000e+001
      vertex -2.500000e+001 -4.250000e+001  1.339746e+000
      vertex -2.500000e+001 -4.323576e+001  1.808480e+000
    endloop
  endfacet
  facet normal  1.000000e+000  0.000000e+000  0.000000e+000
    outer loop
      vertex -2.500000e+001 -5.000000e+001 -3.000000e+001
      vertex -2.500000e+001 -4.323576e+001  1.808480e+000
      vertex -2.500000e+001 -4.392788e+001  2.339556e+000
    endloop
  endfacet
  facet normal  1.000000e+000  0.000000e+000  0.000000e+000
    outer loop
      vertex -2.500000e+001 -5.000000e+001 -3.000000e+001
      vertex -2.500000e+001 -4.392788e+001  2.339556e+000
      vertex -2.500000e+001 -4.457107e+001  2.928932e+000
    endloop
  endfacet
  facet normal  1.000000e+000  0.000000e+000  0.000000e+000
    outer loop
      vertex -2.500000e+001 -5.000000e+001 -3.000000e+001
      vertex -2.500000e+001 -4.457107e+001  2.928932e+000
      vertex -2.500000e+001 -4.516045e+001  3.572124e+000
    endloop
  endfacet
  facet normal  9.999999e-001  0.000000e+000  0.000000e+000
    outer loop
      vertex -2.500000e+001 -5.000000e+001 -3.000000e+001
      vertex -2.500000e+001 -4.516045e+001  3.572124e+000
      vertex -2.500000e+001 -4.569152e+001  4.264235e+000
    endloop
  endfacet
  facet normal  1.000000e+000  0.000000e+000  0.000000e+000
    outer loop
      vertex -2.500000e+001 -5.000000e+001 -3.000000e+001
      vertex -2.500000e+001 -4.569152e+001  4.264235e+000
      vertex -2.500000e+001 -4.616026e+001  5.000000e+000
    endloop
  endfacet
  facet normal  1.000000e+000  0.000000e+000  0.000000e+000
    outer loop
      vertex -2.500000e+001 -5.000000e+001 -3.000000e+001
      vertex -2.500000e+001 -4.616026e+001  5.000000e+000
      vertex -2.500000e+001 -5.000000e+001  5.000000e+000
    endloop
  endfacet
  facet normal  1.000000e+000  0.000000e+000  0.000000e+000
    outer loop
      vertex -2.500000e+001  5.000000e+001 -3.000000e+001
      vertex -2.500000e+001  5.000000e+001  5.000000e+000
      vertex -2.500000e+001  4.616026e+001  5.000000e+000
    endloop
  endfacet
  facet normal  1.000000e+000  0.000000e+000  0.000000e+000
    outer loop
      vertex -2.500000e+001  5.000000e+001 -3.000000e+001
      vertex -2.500000e+001  4.616026e+001  5.000000e+000
      vertex -2.500000e+001  4.569152e+001  4.264235e+000
    endloop
  endfacet
  facet normal  1.000000e+000  0.000000e+000  0.000000e+000
    outer loop
      vertex -2.500000e+001  5.000000e+001 -3.000000e+001
      vertex -2.500000e+001  4.569152e+001  4.264235e+000
      vertex -2.500000e+001  4.516045e+001  3.572124e+000
    endloop
  endfacet
  facet normal  1.000000e+000  0.000000e+000  0.000000e+000
    outer loop
      vertex -2.500000e+001  5.000000e+001 -3.000000e+001
      vertex -2.500000e+001  4.516045e+001  3.572124e+000
      vertex -2.500000e+001  4.457107e+001  2.928932e+000
    endloop
  endfacet
  facet normal  1.000000e+000  0.000000e+000  0.000000e+000
    outer loop
      vertex -2.500000e+001  5.000000e+001 -3.000000e+001
      vertex -2.500000e+001  4.457107e+001  2.928932e+000
      vertex -2.500000e+001  4.392788e+001  2.339556e+000
    endloop
  endfacet
  facet normal  1.000000e+000  0.000000e+000  0.000000e+000
    outer loop
      vertex -2.500000e+001  5.000000e+001 -3.000000e+001
      vertex -2.500000e+001  4.392788e+001  2.339556e+000
      vertex -2.500000e+001  4.323576e+001  1.808480e+000
    endloop
  endfacet
  facet normal  1.000000e+000  0.000000e+000  0.000000e+000
    outer loop
      vertex -2.500000e+001  5.000000e+001 -3.000000e+001
      vertex -2.500000e+001  4.323576e+001  1.808480e+000
      vertex -2.500000e+001  4.250000e+001  1.339746e+000
    endloop
  endfacet
  facet normal  1.000000e+000  0.000000e+000  0.000000e+000
    outer loop
      vertex -2.500000e+001  5.000000e+001 -3.000000e+001
      vertex -2.500000e+001  4.250000e+001  1.339746e+000
      vertex -2.500000e+001  4.172618e+001  9.369221e-001
    endloop
  endfacet
  facet normal  1.000000e+000  0.000000e+000  0.000000e+000
    outer loop
      vertex -2.500000e+001  5.000000e+001 -3.000000e+001
      vertex -2.500000e+001  4.172618e+001  9.369221e-001
      vertex -2.500000e+001  4.092020e+001  6.030738e-001
    endloop
  endfacet
  facet normal  1.000000e+000  0.000000e+000  0.000000e+000
    outer loop
      vertex -2.500000e+001  5.000000e+001 -3.000000e+001
      vertex -2.500000e+001  4.092020e+001  6.030738e-001
      vertex -2.500000e+001  4.008819e+001  3.407417e-001
    endloop
  endfacet
  facet normal  9.999999e-001  0.000000e+000  0.000000e+000
    outer loop
      vertex -2.500000e+001  5.000000e+001 -3.000000e+001
      vertex -2.500000e+001  4.008819e+001  3.407417e-001
      vertex -2.500000e+001  3.923648e+001  1.519225e-001
    endloop
  endfacet
  facet normal  1.000000e+000  0.000000e+000  0.000000e+000
    outer loop
      vertex -2.500000e+001  5.000000e+001 -3.000000e+001
      vertex -2.500000e+001  3.923648e+001  1.519225e-001
      vertex -2.500000e+001  3.837156e+001  3.805302e-002
    endloop
  endfacet
  facet normal  1.000000e+000  0.000000e+000  0.000000e+000
    outer loop
      vertex -2.500000e+001  5.000000e+001 -3.000000e+001
      vertex -2.500000e+001  3.837156e+001  3.805302e-002
      vertex -2.500000e+001  3.750000e+001  1.776357e-015
    endloop
  endfacet
  facet normal  1.000000e+000  -0.000000e+000  0.000000e+000
    outer loop
      vertex -2.500000e+001  2.883975e+001  5.000000e+000
      vertex -2.500000e+001 -2.883975e+001  5.000000e+000
      vertex -2.500000e+001  2.930848e+001  4.264235e+000
    endloop
  endfacet
  facet normal  1.000000e+000  0.000000e+000  0.000000e+000
    outer loop
      vertex -2.500000e+001  2.930848e+001  4.264235e+000
      vertex -2.500000e+001 -2.883975e+001  5.000000e+000
      vertex -2.500000e+001 -2.930848e+001  4.264235e+000
    endloop
  endfacet
  facet normal  1.000000e+000  -0.000000e+000  0.000000e+000
    outer loop
      vertex -2.500000e+001  2.930848e+001  4.264235e+000
      vertex -2.500000e+001 -2.930848e+001  4.264235e+000
      vertex -2.500000e+001  2.983956e+001  3.572124e+000
    endloop
  endfacet
  facet normal  1.000000e+000  0.000000e+000  0.000000e+000
    outer loop
      vertex -2.500000e+001  2.983956e+001  3.572124e+000
      vertex -2.500000e+001 -2.930848e+001  4.264235e+000
      vertex -2.500000e+001 -2.983956e+001  3.572124e+000
    endloop
  endfacet
  facet normal  1.000000e+000  -0.000000e+000  0.000000e+000
    outer loop
      vertex -2.500000e+001  2.983956e+001  3.572124e+000
      vertex -2.500000e+001 -2.983956e+001  3.572124e+000
      vertex -2.500000e+001  3.042893e+001  2.928932e+000
    endloop
  endfacet
  facet normal  1.000000e+000  0.000000e+000  0.000000e+000
    outer loop
      vertex -2.500000e+001  3.042893e+001  2.928932e+000
      vertex -2.500000e+001 -2.983956e+001  3.572124e+000
      vertex -2.500000e+001 -3.042893e+001  2.928932e+000
    endloop
  endfacet
  facet normal  9.999999e-001  -0.000000e+000  0.000000e+000
    outer loop
      vertex -2.500000e+001  3.042893e+001  2.928932e+000
      vertex -2.500000e+001 -3.042893e+001  2.928932e+000
      vertex -2.500000e+001  3.107212e+001  2.339556e+000
    endloop
  endfacet
  facet normal  1.000000e+000  0.000000e+000  0.000000e+000
    outer loop
      vertex -2.500000e+001  3.107212e+001  2.339556e+000
      vertex -2.500000e+001 -3.042893e+001  2.928932e+000
      vertex -2.500000e+001 -3.107212e+001  2.339556e+000
    endloop
  endfacet
  facet normal  1.000000e+000  -0.000000e+000  0.000000e+000
    outer loop
      vertex -2.500000e+001  3.107212e+001  2.339556e+000
      vertex -2.500000e+001 -3.107212e+001  2.339556e+000
      vertex -2.500000e+001  3.176424e+001  1.808480e+000
    endloop
  endfacet
  facet normal  1.000000e+000  0.000000e+000  0.000000e+000
    outer loop
      vertex -2.500000e+001  3.176424e+001  1.808480e+000
      vertex -2.500000e+001 -3.107212e+001  2.339556e+000
      vertex -2.500000e+001 -3.176424e+001  1.808480e+000
    endloop
  endfacet
  facet normal  1.000000e+000  -0.000000e+000  0.000000e+000
    outer loop
      vertex -2.500000e+001  3.176424e+001  1.808480e+000
      vertex -2.500000e+001 -3.176424e+001  1.808480e+000
      vertex -2.500000e+001  3.250000e+001  1.339746e+000
    endloop
  endfacet
  facet normal  1.000000e+000  0.000000e+000  0.000000e+000
    outer loop
      vertex -2.500000e+001  3.250000e+001  1.339746e+000
      vertex -2.500000e+001 -3.176424e+001  1.808480e+000
      vertex -2.500000e+001 -3.250000e+001  1.339746e+000
    endloop
  endfacet
  facet normal  1.000000e+000  -0.000000e+000  0.000000e+000
    outer loop
      vertex -2.500000e+001  3.250000e+001  1.339746e+000
      vertex -2.500000e+001 -3.250000e+001  1.339746e+000
      vertex -2.500000e+001  3.327382e+001  9.369221e-001
    endloop
  endfacet
  facet normal  1.000000e+000  0.000000e+000  0.000000e+000
    outer loop
      vertex -2.500000e+001  3.327382e+001  9.369221e-001
      vertex -2.500000e+001 -3.250000e+001  1.339746e+000
      vertex -2.500000e+001 -3.327382e+001  9.369221e-001
    endloop
  endfacet
  facet normal  1.000000e+000  -0.000000e+000  0.000000e+000
    outer loop
      vertex -2.500000e+001  3.327382e+001  9.369221e-001
      vertex -2.500000e+001 -3.327382e+001  9.369221e-001
      vertex -2.500000e+001  3.407980e+001  6.030738e-001
    endloop
  endfacet
  facet normal  1.000000e+000  0.000000e+000  0.000000e+000
    outer loop
      vertex -2.500000e+001  3.407980e+001  6.030738e-001
      vertex -2.500000e+001 -3.327382e+001  9.369221e-001
      vertex -2.500000e+001 -3.407980e+001  6.030738e-001
    endloop
  endfacet
  facet normal  1.000000e+000  -0.000000e+000  0.000000e+000
    outer loop
      vertex -2.500000e+001  3.407980e+001  6.030738e-001
      vertex -2.500000e+001 -3.407980e+001  6.030738e-001
      vertex -2.500000e+001  3.491181e+001  3.407417e-001
    endloop
  endfacet
  facet normal  1.000000e+000  0.000000e+000  0.000000e+000
    outer loop
      vertex -2.500000e+001  3.491181e+001  3.407417e-001
      vertex -2.500000e+001 -3.407980e+001  6.030738e-001
      vertex -2.500000e+001 -3.491181e+001  3.407417e-001
    endloop
  endfacet
  facet normal  1.000000e+000  -0.000000e+000  0.000000e+000
    outer loop
      vertex -2.500000e+001  3.491181e+001  3.407417e-001
      vertex -2.500000e+001 -3.491181e+001  3.407417e-001
      vertex -2.500000e+001  3.576352e+001  1.519225e-001
    endloop
  endfacet
  facet normal  1.000000e+000  0.000000e+000  0.000000e+000
    outer loop
      vertex -2.500000e+001  3.576352e+001  1.519225e-001
      vertex -2.500000e+001 -3.491181e+001  3.407417e-001
      vertex -2.500000e+001 -3.576352e+001  1.519225e-001
    endloop
  endfacet
  facet normal  1.000000e+000  -0.000000e+000  0.000000e+000
    outer loop
      vertex -2.500000e+001  3.576352e+001  1.519225e-001
      vertex -2.500000e+001 -3.576352e+001  1.519225e-001
      vertex -2.500000e+001  3.662844e+001  3.805302e-002
    endloop
  endfacet
  facet normal  1.000000e+000  0.000000e+000  0.000000e+000
    outer loop
      vertex -2.500000e+001  3.662844e+001  3.805302e-002
      vertex -2.500000e+001 -3.576352e+001  1.519225e-001
      vertex -2.500000e+001 -3.662844e+001  3.805302e-002
    endloop
  endfacet
  facet normal  1.000000e+000  -0.000000e+000  0.000000e+000
    outer loop
      vertex -2.500000e+001  3.662844e+001  3.805302e-002
      vertex -2.500000e+001 -3.662844e+001  3.805302e-002
      vertex -2.500000e+001  3.750000e+001  1.776357e-015
    endloop
  endfacet
  facet normal  1.000000e+000  0.000000e+000  0.000000e+000
    outer loop
      vertex -2.500000e+001  3.750000e+001  1.776357e-015
      vertex -2.500000e+001 -3.662844e+001  3.805302e-002
      vertex -2.500000e+001 -3.750000e+001  1.776357e-015
    endloop
  endfacet
  facet normal  -0.000000e+000  0.000000e+000 -1.000000e+000
    outer loop
      vertex -2.500000e+001  5.000000e+001  5.000000e+000
      vertex  0.000000e+000  5.000000e+001  5.000000e+000
      vertex -2.500000e+001  4.616026e+001  5.000000e+000
    endloop
  endfacet
  facet normal  0.000000e+000  0.000000e+000 -1.000000e+000
    outer loop
      vertex -2.500000e+001  4.616026e+001  5.000000e+000
      vertex  0.000000e+000  5.000000e+001  5.000000e+000
      vertex  0.000000e+000  4.616026e+001  5.000000e+000
    endloop
  endfacet
  facet normal  0.000000e+000 -8.433919e-001 -5.372990e-001
    outer loop
      vertex  0.000000e+000  2.883975e+001  5.000000e+000
      vertex -2.500000e+001  2.883975e+001  5.000000e+000
      vertex  0.000000e+000  2.930848e+001  4.264235e+000
    endloop
  endfacet
  facet normal  -0.000000e+000 -8.433919e-001 -5.372990e-001
    outer loop
      vertex  0.000000e+000  2.930848e+001  4.264235e+000
      vertex -2.500000e+001  2.883975e+001  5.000000e+000
      vertex -2.500000e+001  2.930848e+001  4.264235e+000
    endloop
  endfacet
  facet normal  0.000000e+000 -7.933530e-001 -6.087618e-001
    outer loop
      vertex  0.000000e+000  2.930848e+001  4.264235e+000
      vertex -2.500000e+001  2.930848e+001  4.264235e+000
      vertex  0.000000e+000  2.983956e+001  3.572124e+000
    endloop
  endfacet
  facet normal  -0.000000e+000 -7.933530e-001 -6.087618e-001
    outer loop
      vertex  0.000000e+000  2.983956e+001  3.572124e+000
      vertex -2.500000e+001  2.930848e+001  4.264235e+000
      vertex -2.500000e+001  2.983956e+001  3.572124e+000
    endloop
  endfacet
  facet normal  0.000000e+000 -7.372775e-001 -6.755900e-001
    outer loop
      vertex  0.000000e+000  2.983956e+001  3.572124e+000
      vertex -2.500000e+001  2.983956e+001  3.572124e+000
      vertex  0.000000e+000  3.042893e+001  2.928932e+000
    endloop
  endfacet
  facet normal  -0.000000e+000 -7.372775e-001 -6.755900e-001
    outer loop
      vertex  0.000000e+000  3.042893e+001  2.928932e+000
      vertex -2.500000e+001  2.983956e+001  3.572124e+000
      vertex -2.500000e+001  3.042893e+001  2.928932e+000
    endloop
  endfacet
  facet normal  0.000000e+000 -6.755899e-001 -7.372776e-001
    outer loop
      vertex  0.000000e+000  3.042893e+001  2.928932e+000
      vertex -2.500000e+001  3.042893e+001  2.928932e+000
      vertex  0.000000e+000  3.107212e+001  2.339556e+000
    endloop
  endfacet
  facet normal  -0.000000e+000 -6.755899e-001 -7.372776e-001
    outer loop
      vertex  0.000000e+000  3.107212e+001  2.339556e+000
      vertex -2.500000e+001  3.042893e+001  2.928932e+000
      vertex -2.500000e+001  3.107212e+001  2.339556e+000
    endloop
  endfacet
  facet normal  0.000000e+000 -6.087613e-001 -7.933535e-001
    outer loop
      vertex  0.000000e+000  3.107212e+001  2.339556e+000
      vertex -2.500000e+001  3.107212e+001  2.339556e+000
      vertex  0.000000e+000  3.176424e+001  1.808480e+000
    endloop
  endfacet
  facet normal  -0.000000e+000 -6.087613e-001 -7.933535e-001
    outer loop
      vertex  0.000000e+000  3.176424e+001  1.808480e+000
      vertex -2.500000e+001  3.107212e+001  2.339556e+000
      vertex -2.500000e+001  3.176424e+001  1.808480e+000
    endloop
  endfacet
  facet normal  0.000000e+000 -5.373000e-001 -8.433912e-001
    outer loop
      vertex  0.000000e+000  3.176424e+001  1.808480e+000
      vertex -2.500000e+001  3.176424e+001  1.808480e+000
      vertex  0.000000e+000  3.250000e+001  1.339746e+000
    endloop
  endfacet
  facet normal  -0.000000e+000 -5.373000e-001 -8.433912e-001
    outer loop
      vertex  0.000000e+000  3.250000e+001  1.339746e+000
      vertex -2.500000e+001  3.176424e+001  1.808480e+000
      vertex -2.500000e+001  3.250000e+001  1.339746e+000
    endloop
  endfacet
  facet normal  0.000000e+000 -4.617479e-001 -8.870111e-001
    outer loop
      vertex  0.000000e+000  3.250000e+001  1.339746e+000
      vertex -2.500000e+001  3.250000e+001  1.339746e+000
      vertex  0.000000e+000  3.327382e+001  9.369221e-001
    endloop
  endfacet
  facet normal  -0.000000e+000 -4.617479e-001 -8.870111e-001
    outer loop
      vertex  0.000000e+000  3.327382e+001  9.369221e-001
      vertex -2.500000e+001  3.250000e+001  1.339746e+000
      vertex -2.500000e+001  3.327382e+001  9.369221e-001
    endloop
  endfacet
  facet normal  0.000000e+000 -3.826836e-001 -9.238794e-001
    outer loop
      vertex  0.000000e+000  3.327382e+001  9.369221e-001
      vertex -2.500000e+001  3.327382e+001  9.369221e-001
      vertex  0.000000e+000  3.407980e+001  6.030738e-001
    endloop
  endfacet
  facet normal  -0.000000e+000 -3.826836e-001 -9.238794e-001
    outer loop
      vertex  0.000000e+000  3.407980e+001  6.030738e-001
      vertex -2.500000e+001  3.327382e+001  9.369221e-001
      vertex -2.500000e+001  3.407980e+001  6.030738e-001
    endloop
  endfacet
  facet normal  0.000000e+000 -3.007067e-001 -9.537166e-001
    outer loop
      vertex  0.000000e+000  3.407980e+001  6.030738e-001
      vertex -2.500000e+001  3.407980e+001  6.030738e-001
      vertex  0.000000e+000  3.491181e+001  3.407417e-001
    endloop
  endfacet
  facet normal  -0.000000e+000 -3.007067e-001 -9.537166e-001
    outer loop
      vertex  0.000000e+000  3.491181e+001  3.407417e-001
      vertex -2.500000e+001  3.407980e+001  6.030738e-001
      vertex -2.500000e+001  3.491181e+001  3.407417e-001
    endloop
  endfacet
  facet normal  0.000000e+000 -2.164390e-001 -9.762961e-001
    outer loop
      vertex  0.000000e+000  3.491181e+001  3.407417e-001
      vertex -2.500000e+001  3.491181e+001  3.407417e-001
      vertex  0.000000e+000  3.576352e+001  1.519225e-001
    endloop
  endfacet
  facet normal  -0.000000e+000 -2.164390e-001 -9.762961e-001
    outer loop
      vertex  0.000000e+000  3.576352e+001  1.519225e-001
      vertex -2.500000e+001  3.491181e+001  3.407417e-001
      vertex -2.500000e+001  3.576352e+001  1.519225e-001
    endloop
  endfacet
  facet normal  0.000000e+000 -1.305266e-001 -9.914447e-001
    outer loop
      vertex  0.000000e+000  3.576352e+001  1.519225e-001
      vertex -2.500000e+001  3.576352e+001  1.519225e-001
      vertex  0.000000e+000  3.662844e+001  3.805302e-002
    endloop
  endfacet
  facet normal  -0.000000e+000 -1.305266e-001 -9.914447e-001
    outer loop
      vertex  0.000000e+000  3.662844e+001  3.805302e-002
      vertex -2.500000e+001  3.576352e+001  1.519225e-001
      vertex -2.500000e+001  3.662844e+001  3.805302e-002
    endloop
  endfacet
  facet normal  0.000000e+000 -4.361930e-002 -9.990482e-001
    outer loop
      vertex  0.000000e+000  3.662844e+001  3.805302e-002
      vertex -2.500000e+001  3.662844e+001  3.805302e-002
      vertex  0.000000e+000  3.750000e+001  1.776357e-015
    endloop
  endfacet
  facet normal  -0.000000e+000 -4.361930e-002 -9.990482e-001
    outer loop
      vertex  0.000000e+000  3.750000e+001  1.776357e-015
      vertex -2.500000e+001  3.662844e+001  3.805302e-002
      vertex -2.500000e+001  3.750000e+001  1.776357e-015
    endloop
  endfacet
  facet normal  0.000000e+000  4.361930e-002 -9.990482e-001
    outer loop
      vertex  0.000000e+000  3.750000e+001  1.776357e-015
      vertex -2.500000e+001  3.750000e+001  1.776357e-015
      vertex  0.000000e+000  3.837156e+001  3.805302e-002
    endloop
  endfacet
  facet normal  0.000000e+000  4.361930e-002 -9.990482e-001
    outer loop
      vertex  0.000000e+000  3.837156e+001  3.805302e-002
      vertex -2.500000e+001  3.750000e+001  1.776357e-015
      vertex -2.500000e+001  3.837156e+001  3.805302e-002
    endloop
  endfacet
  facet normal  0.000000e+000  1.305266e-001 -9.914447e-001
    outer loop
      vertex  0.000000e+000  3.837156e+001  3.805302e-002
      vertex -2.500000e+001  3.837156e+001  3.805302e-002
      vertex  0.000000e+000  3.923648e+001  1.519225e-001
    endloop
  endfacet
  facet normal  0.000000e+000  1.305266e-001 -9.914447e-001
    outer loop
      vertex  0.000000e+000  3.923648e+001  1.519225e-001
      vertex -2.500000e+001  3.837156e+001  3.805302e-002
      vertex -2.500000e+001  3.923648e+001  1.519225e-001
    endloop
  endfacet
  facet normal  0.000000e+000  2.164390e-001 -9.762961e-001
    outer loop
      vertex  0.000000e+000  3.923648e+001  1.519225e-001
      vertex -2.500000e+001  3.923648e+001  1.519225e-001
      vertex  0.000000e+000  4.008819e+001  3.407417e-001
    endloop
  endfacet
  facet normal  0.000000e+000  2.164390e-001 -9.762961e-001
    outer loop
      vertex  0.000000e+000  4.008819e+001  3.407417e-001
      vertex -2.500000e+001  3.923648e+001  1.519225e-001
      vertex -2.500000e+001  4.008819e+001  3.407417e-001
    endloop
  endfacet
  facet normal  0.000000e+000  3.007067e-001 -9.537166e-001
    outer loop
      vertex  0.000000e+000  4.008819e+001  3.407417e-001
      vertex -2.500000e+001  4.008819e+001  3.407417e-001
      vertex  0.000000e+000  4.092020e+001  6.030738e-001
    endloop
  endfacet
  facet normal  0.000000e+000  3.007067e-001 -9.537166e-001
    outer loop
      vertex  0.000000e+000  4.092020e+001  6.030738e-001
      vertex -2.500000e+001  4.008819e+001  3.407417e-001
      vertex -2.500000e+001  4.092020e+001  6.030738e-001
    endloop
  endfacet
  facet normal  0.000000e+000  3.826836e-001 -9.238794e-001
    outer loop
      vertex  0.000000e+000  4.092020e+001  6.030738e-001
      vertex -2.500000e+001  4.092020e+001  6.030738e-001
      vertex  0.000000e+000  4.172618e+001  9.369221e-001
    endloop
  endfacet
  facet normal  0.000000e+000  3.826836e-001 -9.238794e-001
    outer loop
      vertex  0.000000e+000  4.172618e+001  9.369221e-001
      vertex -2.500000e+001  4.092020e+001  6.030738e-001
      vertex -2.500000e+001  4.172618e+001  9.369221e-001
    endloop
  endfacet
  facet normal  0.000000e+000  4.617479e-001 -8.870111e-001
    outer loop
      vertex  0.000000e+000  4.172618e+001  9.369221e-001
      vertex -2.500000e+001  4.172618e+001  9.369221e-001
      vertex  0.000000e+000  4.250000e+001  1.339746e+000
    endloop
  endfacet
  facet normal  0.000000e+000  4.617479e-001 -8.870111e-001
    outer loop
      vertex  0.000000e+000  4.250000e+001  1.339746e+000
      vertex -2.500000e+001  4.172618e+001  9.369221e-001
      vertex -2.500000e+001  4.250000e+001  1.339746e+000
    endloop
  endfacet
  facet normal  0.000000e+000  5.373000e-001 -8.433912e-001
    outer loop
      vertex  0.000000e+000  4.250000e+001  1.339746e+000
      vertex -2.500000e+001  4.250000e+001  1.339746e+000
      vertex  0.000000e+000  4.323576e+001  1.808480e+000
    endloop
  endfacet
  facet normal  0.000000e+000  5.373000e-001 -8.433912e-001
    outer loop
      vertex  0.000000e+000  4.323576e+001  1.808480e+000
      vertex -2.500000e+001  4.250000e+001  1.339746e+000
      vertex -2.500000e+001  4.323576e+001  1.808480e+000
    endloop
  endfacet
  facet normal  0.000000e+000  6.087613e-001 -7.933535e-001
    outer loop
      vertex  0.000000e+000  4.323576e+001  1.808480e+000
      vertex -2.500000e+001  4.323576e+001  1.808480e+000
      vertex  0.000000e+000  4.392788e+001  2.339556e+000
    endloop
  endfacet
  facet normal  0.000000e+000  6.087613e-001 -7.933535e-001
    outer loop
      vertex  0.000000e+000  4.392788e+001  2.339556e+000
      vertex -2.500000e+001  4.323576e+001  1.808480e+000
      vertex -2.500000e+001  4.392788e+001  2.339556e+000
    endloop
  endfacet
  facet normal  0.000000e+000  6.755899e-001 -7.372776e-001
    outer loop
      vertex  0.000000e+000  4.392788e+001  2.339556e+000
      vertex -2.500000e+001  4.392788e+001  2.339556e+000
      vertex  0.000000e+000  4.457107e+001  2.928932e+000
    endloop
  endfacet
  facet normal  0.000000e+000  6.755899e-001 -7.372776e-001
    outer loop
      vertex  0.000000e+000  4.457107e+001  2.928932e+000
      vertex -2.500000e+001  4.392788e+001  2.339556e+000
      vertex -2.500000e+001  4.457107e+001  2.928932e+000
    endloop
  endfacet
  facet normal  0.000000e+000  7.372764e-001 -6.755912e-001
    outer loop
      vertex  0.000000e+000  4.457107e+001  2.928932e+000
      vertex -2.500000e+001  4.457107e+001  2.928932e+000
      vertex  0.000000e+000  4.516045e+001  3.572124e+000
    endloop
  endfacet
  facet normal  0.000000e+000  7.372764e-001 -6.755912e-001
    outer loop
      vertex  0.000000e+000  4.516045e+001  3.572124e+000
      vertex -2.500000e+001  4.457107e+001  2.928932e+000
      vertex -2.500000e+001  4.516045e+001  3.572124e+000
    endloop
  endfacet
  facet normal  0.000000e+000  7.933540e-001 -6.087605e-001
    outer loop
      vertex  0.000000e+000  4.516045e+001  3.572124e+000
      vertex -2.500000e+001  4.516045e+001  3.572124e+000
      vertex  0.000000e+000  4.569152e+001  4.264235e+000
    endloop
  endfacet
  facet normal  0.000000e+000  7.933540e-001 -6.087605e-001
    outer loop
      vertex  0.000000e+000  4.569152e+001  4.264235e+000
      vertex -2.500000e+001  4.516045e+001  3.572124e+000
      vertex -2.500000e+001  4.569152e+001  4.264235e+000
    endloop
  endfacet
  facet normal  0.000000e+000  8.433909e-001 -5.373005e-001
    outer loop
      vertex  0.000000e+000  4.569152e+001  4.264235e+000
      vertex -2.500000e+001  4.569152e+001  4.264235e+000
      vertex  0.000000e+000  4.616026e+001  5.000000e+000
    endloop
  endfacet
  facet normal  0.000000e+000  8.433909e-001 -5.373005e-001
    outer loop
      vertex  0.000000e+000  4.616026e+001  5.000000e+000
      vertex -2.500000e+001  4.569152e+001  4.264235e+000
      vertex -2.500000e+001  4.616026e+001  5.000000e+000
    endloop
  endfacet
  facet normal  -0.000000e+000  0.000000e+000 -1.000000e+000
    outer loop
      vertex -2.500000e+001 -4.616026e+001  5.000000e+000
      vertex  0.000000e+000 -4.616026e+001  5.000000e+000
      vertex -2.500000e+001 -5.000000e+001  5.000000e+000
    endloop
  endfacet
  facet normal  0.000000e+000  0.000000e+000 -1.000000e+000
    outer loop
      vertex -2.500000e+001 -5.000000e+001  5.000000e+000
      vertex  0.000000e+000 -4.616026e+001  5.000000e+000
      vertex  0.000000e+000 -5.000000e+001  5.000000e+000
    endloop
  endfacet
  facet normal  -0.000000e+000  0.000000e+000 -9.999999e-001
    outer loop
      vertex -2.500000e+001  2.883975e+001  5.000000e+000
      vertex  0.000000e+000  2.883975e+001  5.000000e+000
      vertex -2.500000e+001 -2.883975e+001  5.000000e+000
    endloop
  endfacet
  facet normal  0.000000e+000  0.000000e+000 -9.999999e-001
    outer loop
      vertex -2.500000e+001 -2.883975e+001  5.000000e+000
      vertex  0.000000e+000  2.883975e+001  5.000000e+000
      vertex  0.000000e+000 -2.883975e+001  5.000000e+000
    endloop
  endfacet
  facet normal  0.000000e+000 -8.433909e-001 -5.373005e-001
    outer loop
      vertex  0.000000e+000 -4.616026e+001  5.000000e+000
      vertex -2.500000e+001 -4.616026e+001  5.000000e+000
      vertex  0.000000e+000 -4.569152e+001  4.264235e+000
    endloop
  endfacet
  facet normal  -0.000000e+000 -8.433909e-001 -5.373005e-001
    outer loop
      vertex  0.000000e+000 -4.569152e+001  4.264235e+000
      vertex -2.500000e+001 -4.616026e+001  5.000000e+000
      vertex -2.500000e+001 -4.569152e+001  4.264235e+000
    endloop
  endfacet
  facet normal  0.000000e+000 -7.933540e-001 -6.087605e-001
    outer loop
      vertex  0.000000e+000 -4.569152e+001  4.264235e+000
      vertex -2.500000e+001 -4.569152e+001  4.264235e+000
      vertex  0.000000e+000 -4.516045e+001  3.572124e+000
    endloop
  endfacet
  facet normal  -0.000000e+000 -7.933540e-001 -6.087605e-001
    outer loop
      vertex  0.000000e+000 -4.516045e+001  3.572124e+000
      vertex -2.500000e+001 -4.569152e+001  4.264235e+000
      vertex -2.500000e+001 -4.516045e+001  3.572124e+000
    endloop
  endfacet
  facet normal  0.000000e+000 -7.372764e-001 -6.755912e-001
    outer loop
      vertex  0.000000e+000 -4.516045e+001  3.572124e+000
      vertex -2.500000e+001 -4.516045e+001  3.572124e+000
      vertex  0.000000e+000 -4.457107e+001  2.928932e+000
    endloop
  endfacet
  facet normal  -0.000000e+000 -7.372764e-001 -6.755912e-001
    outer loop
      vertex  0.000000e+000 -4.457107e+001  2.928932e+000
      vertex -2.500000e+001 -4.516045e+001  3.572124e+000
      vertex -2.500000e+001 -4.457107e+001  2.928932e+000
    endloop
  endfacet
  facet normal  0.000000e+000 -6.755899e-001 -7.372776e-001
    outer loop
      vertex  0.000000e+000 -4.457107e+001  2.928932e+000
      vertex -2.500000e+001 -4.457107e+001  2.928932e+000
      vertex  0.000000e+000 -4.392788e+001  2.339556e+000
    endloop
  endfacet
  facet normal  -0.000000e+000 -6.755899e-001 -7.372776e-001
    outer loop
      vertex  0.000000e+000 -4.392788e+001  2.339556e+000
      vertex -2.500000e+001 -4.457107e+001  2.928932e+000
      vertex -2.500000e+001 -4.392788e+001  2.339556e+000
    endloop
  endfacet
  facet normal  0.000000e+000 -6.087613e-001 -7.933535e-001
    outer loop
      vertex  0.000000e+000 -4.392788e+001  2.339556e+000
      vertex -2.500000e+001 -4.392788e+001  2.339556e+000
      vertex  0.000000e+000 -4.323576e+001  1.808480e+000
    endloop
  endfacet
  facet normal  -0.000000e+000 -6.087613e-001 -7.933535e-001
    outer loop
      vertex  0.000000e+000 -4.323576e+001  1.808480e+000
      vertex -2.500000e+001 -4.392788e+001  2.339556e+000
      vertex -2.500000e+001 -4.323576e+001  1.808480e+000
    endloop
  endfacet
  facet normal  0.000000e+000 -5.373000e-001 -8.433912e-001
    outer loop
      vertex  0.000000e+000 -4.323576e+001  1.808480e+000
      vertex -2.500000e+001 -4.323576e+001  1.808480e+000
      vertex  0.000000e+000 -4.250000e+001  1.339746e+000
    endloop
  endfacet
  facet normal  -0.000000e+000 -5.373000e-001 -8.433912e-001
    outer loop
      vertex  0.000000e+000 -4.250000e+001  1.339746e+000
      vertex -2.500000e+001 -4.323576e+001  1.808480e+000
      vertex -2.500000e+001 -4.250000e+001  1.339746e+000
    endloop
  endfacet
  facet normal  0.000000e+000 -4.617479e-001 -8.870111e-001
    outer loop
      vertex  0.000000e+000 -4.250000e+001  1.339746e+000
      vertex -2.500000e+001 -4.250000e+001  1.339746e+000
      vertex  0.000000e+000 -4.172618e+001  9.369221e-001
    endloop
  endfacet
  facet normal  -0.000000e+000 -4.617479e-001 -8.870111e-001
    outer loop
      vertex  0.000000e+000 -4.172618e+001  9.369221e-001
      vertex -2.500000e+001 -4.250000e+001  1.339746e+000
      vertex -2.500000e+001 -4.172618e+001  9.369221e-001
    endloop
  endfacet
  facet normal  0.000000e+000 -3.826836e-001 -9.238794e-001
    outer loop
      vertex  0.000000e+000 -4.172618e+001  9.369221e-001
      vertex -2.500000e+001 -4.172618e+001  9.369221e-001
      vertex  0.000000e+000 -4.092020e+001  6.030738e-001
    endloop
  endfacet
  facet normal  -0.000000e+000 -3.826836e-001 -9.238794e-001
    outer loop
      vertex  0.000000e+000 -4.092020e+001  6.030738e-001
      vertex -2.500000e+001 -4.172618e+001  9.369221e-001
      vertex -2.500000e+001 -4.092020e+001  6.030738e-001
    endloop
  endfacet
  facet normal  0.000000e+000 -3.007067e-001 -9.537166e-001
    outer loop
      vertex  0.000000e+000 -4.092020e+001  6.030738e-001
      vertex -2.500000e+001 -4.092020e+001  6.030738e-001
      vertex  0.000000e+000 -4.008819e+001  3.407417e-001
    endloop
  endfacet
  facet normal  -0.000000e+000 -3.007067e-001 -9.537166e-001
    outer loop
      vertex  0.000000e+000 -4.008819e+001  3.407417e-001
      vertex -2.500000e+001 -4.092020e+001  6.030738e-001
      vertex -2.500000e+001 -4.008819e+001  3.407417e-001
    endloop
  endfacet
  facet normal  0.000000e+000 -2.164390e-001 -9.762961e-001
    outer loop
      vertex  0.000000e+000 -4.008819e+001  3.407417e-001
      vertex -2.500000e+001 -4.008819e+001  3.407417e-001
      vertex  0.000000e+000 -3.923648e+001  1.519225e-001
    endloop
  endfacet
  facet normal  -0.000000e+000 -2.164390e-001 -9.762961e-001
    outer loop
      vertex  0.000000e+000 -3.923648e+001  1.519225e-001
      vertex -2.500000e+001 -4.008819e+001  3.407417e-001
      vertex -2.500000e+001 -3.923648e+001  1.519225e-001
    endloop
  endfacet
  facet normal  0.000000e+000 -1.305266e-001 -9.914447e-001
    outer loop
      vertex  0.000000e+000 -3.923648e+001  1.519225e-001
      vertex -2.500000e+001 -3.923648e+001  1.519225e-001
      vertex  0.000000e+000 -3.837156e+001  3.805302e-002
    endloop
  endfacet
  facet normal  -0.000000e+000 -1.305266e-001 -9.914447e-001
    outer loop
      vertex  0.000000e+000 -3.837156e+001  3.805302e-002
      vertex -2.500000e+001 -3.923648e+001  1.519225e-001
      vertex -2.500000e+001 -3.837156e+001  3.805302e-002
    endloop
  endfacet
  facet normal  0.000000e+000 -4.361930e-002 -9.990482e-001
    outer loop
      vertex  0.000000e+000 -3.837156e+001  3.805302e-002
      vertex -2.500000e+001 -3.837156e+001  3.805302e-002
      vertex  0.000000e+000 -3.750000e+001  1.776357e-015
    endloop
  endfacet
  facet normal  -0.000000e+000 -4.361930e-002 -9.990482e-001
    outer loop
      vertex  0.000000e+000 -3.750000e+001  1.776357e-015
      vertex -2.500000e+001 -3.837156e+001  3.805302e-002
      vertex -2.500000e+001 -3.750000e+001  1.776357e-015
    endloop
  endfacet
  facet normal  0.000000e+000  4.361930e-002 -9.990482e-001
    outer loop
      vertex  0.000000e+000 -3.750000e+001  1.776357e-015
      vertex -2.500000e+001 -3.750000e+001  1.776357e-015
      vertex  0.000000e+000 -3.662844e+001  3.805302e-002
    endloop
  endfacet
  facet normal  0.000000e+000  4.361930e-002 -9.990482e-001
    outer loop
      vertex  0.000000e+000 -3.662844e+001  3.805302e-002
      vertex -2.500000e+001 -3.750000e+001  1.776357e-015
      vertex -2.500000e+001 -3.662844e+001  3.805302e-002
    endloop
  endfacet
  facet normal  0.000000e+000  1.305266e-001 -9.914447e-001
    outer loop
      vertex  0.000000e+000 -3.662844e+001  3.805302e-002
      vertex -2.500000e+001 -3.662844e+001  3.805302e-002
      vertex  0.000000e+000 -3.576352e+001  1.519225e-001
    endloop
  endfacet
  facet normal  0.000000e+000  1.305266e-001 -9.914447e-001
    outer loop
      vertex  0.000000e+000 -3.576352e+001  1.519225e-001
      vertex -2.500000e+001 -3.662844e+001  3.805302e-002
      vertex -2.500000e+001 -3.576352e+001  1.519225e-001
    endloop
  endfacet
  facet normal  0.000000e+000  2.164390e-001 -9.762961e-001
    outer loop
      vertex  0.000000e+000 -3.576352e+001  1.519225e-001
      vertex -2.500000e+001 -3.576352e+001  1.519225e-001
      vertex  0.000000e+000 -3.491181e+001  3.407417e-001
    endloop
  endfacet
  facet normal  0.000000e+000  2.164390e-001 -9.762961e-001
    outer loop
      vertex  0.000000e+000 -3.491181e+001  3.407417e-001
      vertex -2.500000e+001 -3.576352e+001  1.519225e-001
      vertex -2.500000e+001 -3.491181e+001  3.407417e-001
    endloop
  endfacet
  facet normal  0.000000e+000  3.007067e-001 -9.537166e-001
    outer loop
      vertex  0.000000e+000 -3.491181e+001  3.407417e-001
      vertex -2.500000e+001 -3.491181e+001  3.407417e-001
      vertex  0.000000e+000 -3.407980e+001  6.030738e-001
    endloop
  endfacet
  facet normal  0.000000e+000  3.007067e-001 -9.537166e-001
    outer loop
      vertex  0.000000e+000 -3.407980e+001  6.030738e-001
      vertex -2.500000e+001 -3.491181e+001  3.407417e-001
      vertex -2.500000e+001 -3.407980e+001  6.030738e-001
    endloop
  endfacet
  facet normal  0.000000e+000  3.826836e-001 -9.238794e-001
    outer loop
      vertex  0.000000e+000 -3.407980e+001  6.030738e-001
      vertex -2.500000e+001 -3.407980e+001  6.030738e-001
      vertex  0.000000e+000 -3.327382e+001  9.369221e-001
    endloop
  endfacet
  facet normal  0.000000e+000  3.826836e-001 -9.238794e-001
    outer loop
      vertex  0.000000e+000 -3.327382e+001  9.369221e-001
      vertex -2.500000e+001 -3.407980e+001  6.030738e-001
      vertex -2.500000e+001 -3.327382e+001  9.369221e-001
    endloop
  endfacet
  facet normal  0.000000e+000  4.617479e-001 -8.870111e-001
    outer loop
      vertex  0.000000e+000 -3.327382e+001  9.369221e-001
      vertex -2.500000e+001 -3.327382e+001  9.369221e-001
      vertex  0.000000e+000 -3.250000e+001  1.339746e+000
    endloop
  endfacet
  facet normal  0.000000e+000  4.617479e-001 -8.870111e-001
    outer loop
      vertex  0.000000e+000 -3.250000e+001  1.339746e+000
      vertex -2.500000e+001 -3.327382e+001  9.369221e-001
      vertex -2.500000e+001 -3.250000e+001  1.339746e+000
    endloop
  endfacet
  facet normal  0.000000e+000  5.373000e-001 -8.433912e-001
    outer loop
      vertex  0.000000e+000 -3.250000e+001  1.339746e+000
      vertex -2.500000e+001 -3.250000e+001  1.339746e+000
      vertex  0.000000e+000 -3.176424e+001  1.808480e+000
    endloop
  endfacet
  facet normal  0.000000e+000  5.373000e-001 -8.433912e-001
    outer loop
      vertex  0.000000e+000 -3.176424e+001  1.808480e+000
      vertex -2.500000e+001 -3.250000e+001  1.339746e+000
      vertex -2.500000e+001 -3.176424e+001  1.808480e+000
    endloop
  endfacet
  facet normal  0.000000e+000  6.087613e-001 -7.933535e-001
    outer loop
      vertex  0.000000e+000 -3.176424e+001  1.808480e+000
      vertex -2.500000e+001 -3.176424e+001  1.808480e+000
      vertex  0.000000e+000 -3.107212e+001  2.339556e+000
    endloop
  endfacet
  facet normal  0.000000e+000  6.087613e-001 -7.933535e-001
    outer loop
      vertex  0.000000e+000 -3.107212e+001  2.339556e+000
      vertex -2.500000e+001 -3.176424e+001  1.808480e+000
      vertex -2.500000e+001 -3.107212e+001  2.339556e+000
    endloop
  endfacet
  facet normal  0.000000e+000  6.755899e-001 -7.372776e-001
    outer loop
      vertex  0.000000e+000 -3.107212e+001  2.339556e+000
      vertex -2.500000e+001 -3.107212e+001  2.339556e+000
      vertex  0.000000e+000 -3.042893e+001  2.928932e+000
    endloop
  endfacet
  facet normal  0.000000e+000  6.755899e-001 -7.372776e-001
    outer loop
      vertex  0.000000e+000 -3.042893e+001  2.928932e+000
      vertex -2.500000e+001 -3.107212e+001  2.339556e+000
      vertex -2.500000e+001 -3.042893e+001  2.928932e+000
    endloop
  endfacet
  facet normal  0.000000e+000  7.372775e-001 -6.755900e-001
    outer loop
      vertex  0.000000e+000 -3.042893e+001  2.928932e+000
      vertex -2.500000e+001 -3.042893e+001  2.928932e+000
      vertex  0.000000e+000 -2.983956e+001  3.572124e+000
    endloop
  endfacet
  facet normal  0.000000e+000  7.372775e-001 -6.755900e-001
    outer loop
      vertex  0.000000e+000 -2.983956e+001  3.572124e+000
      vertex -2.500000e+001 -3.042893e+001  2.928932e+000
      vertex -2.500000e+001 -2.983956e+001  3.572124e+000
    endloop
  endfacet
  facet normal  0.000000e+000  7.933530e-001 -6.087618e-001
    outer loop
      vertex  0.000000e+000 -2.983956e+001  3.572124e+000
      vertex -2.500000e+001 -2.983956e+001  3.572124e+000
      vertex  0.000000e+000 -2.930848e+001  4.264235e+000
    endloop
  endfacet
  facet normal  0.000000e+000  7.933530e-001 -6.087618e-001
    outer loop
      vertex  0.000000e+000 -2.930848e+001  4.264235e+000
      vertex -2.500000e+001 -2.983956e+001  3.572124e+000
      vertex -2.500000e+001 -2.930848e+001  4.264235e+000
    endloop
  endfacet
  facet normal  0.000000e+000  8.433919e-001 -5.372990e-001
    outer loop
      vertex  0.000000e+000 -2.930848e+001  4.264235e+000
      vertex -2.500000e+001 -2.930848e+001  4.264235e+000
      vertex  0.000000e+000 -2.883975e+001  5.000000e+000
    endloop
  endfacet
  facet normal  0.000000e+000  8.433919e-001 -5.372990e-001
    outer loop
      vertex  0.000000e+000 -2.883975e+001  5.000000e+000
      vertex -2.500000e+001 -2.930848e+001  4.264235e+000
      vertex -2.500000e+001 -2.883975e+001  5.000000e+000
    endloop
  endfacet
  facet normal -1.000000e+000  0.000000e+000  0.000000e+000
    outer loop
      vertex  0.000000e+000 -5.000000e+001  0.000000e+000
      vertex  0.000000e+000 -5.000000e+001  5.000000e+000
      vertex  0.000000e+000 -4.616026e+001  5.000000e+000
    endloop
  endfacet
  facet normal -1.000000e+000  0.000000e+000  -0.000000e+000
    outer loop
      vertex  0.000000e+000 -5.000000e+001  0.000000e+000
      vertex  0.000000e+000 -4.616026e+001  5.000000e+000
      vertex  0.000000e+000 -4.569152e+001  4.264235e+000
    endloop
  endfacet
  facet normal -1.000000e+000  0.000000e+000  -0.000000e+000
    outer loop
      vertex  0.000000e+000 -5.000000e+001  0.000000e+000
      vertex  0.000000e+000 -4.569152e+001  4.264235e+000
      vertex  0.000000e+000 -4.516045e+001  3.572124e+000
    endloop
  endfacet
  facet normal -9.999999e-001  0.000000e+000  -0.000000e+000
    outer loop
      vertex  0.000000e+000 -5.000000e+001  0.000000e+000
      vertex  0.000000e+000 -4.516045e+001  3.572124e+000
      vertex  0.000000e+000 -4.457107e+001  2.928932e+000
    endloop
  endfacet
  facet normal -1.000000e+000  0.000000e+000  -0.000000e+000
    outer loop
      vertex  0.000000e+000 -5.000000e+001  0.000000e+000
      vertex  0.000000e+000 -4.457107e+001  2.928932e+000
      vertex  0.000000e+000 -4.392788e+001  2.339556e+000
    endloop
  endfacet
  facet normal -1.000000e+000  0.000000e+000  -0.000000e+000
    outer loop
      vertex  0.000000e+000 -5.000000e+001  0.000000e+000
      vertex  0.000000e+000 -4.392788e+001  2.339556e+000
      vertex  0.000000e+000 -4.323576e+001  1.808480e+000
    endloop
  endfacet
  facet normal -1.000000e+000  0.000000e+000  -0.000000e+000
    outer loop
      vertex  0.000000e+000 -5.000000e+001  0.000000e+000
      vertex  0.000000e+000 -4.323576e+001  1.808480e+000
      vertex  0.000000e+000 -4.250000e+001  1.339746e+000
    endloop
  endfacet
  facet normal -1.000000e+000  0.000000e+000  -0.000000e+000
    outer loop
      vertex  0.000000e+000 -5.000000e+001  0.000000e+000
      vertex  0.000000e+000 -4.250000e+001  1.339746e+000
      vertex  0.000000e+000 -4.172618e+001  9.369221e-001
    endloop
  endfacet
  facet normal -9.999999e-001  0.000000e+000  -0.000000e+000
    outer loop
      vertex  0.000000e+000 -5.000000e+001  0.000000e+000
      vertex  0.000000e+000 -4.172618e+001  9.369221e-001
      vertex  0.000000e+000 -4.092020e+001  6.030738e-001
    endloop
  endfacet
  facet normal -1.000000e+000  0.000000e+000  -0.000000e+000
    outer loop
      vertex  0.000000e+000 -5.000000e+001  0.000000e+000
      vertex  0.000000e+000 -4.092020e+001  6.030738e-001
      vertex  0.000000e+000 -4.008819e+001  3.407417e-001
    endloop
  endfacet
  facet normal -1.000000e+000  0.000000e+000  -0.000000e+000
    outer loop
      vertex  0.000000e+000 -5.000000e+001  0.000000e+000
      vertex  0.000000e+000 -4.008819e+001  3.407417e-001
      vertex  0.000000e+000 -3.923648e+001  1.519225e-001
    endloop
  endfacet
  facet normal -1.000000e+000  0.000000e+000  -0.000000e+000
    outer loop
      vertex  0.000000e+000 -5.000000e+001  0.000000e+000
      vertex  0.000000e+000 -3.923648e+001  1.519225e-001
      vertex  0.000000e+000 -3.837156e+001  3.805302e-002
    endloop
  endfacet
  facet normal -1.000000e+000  0.000000e+000  -0.000000e+000
    outer loop
      vertex  0.000000e+000 -5.000000e+001  0.000000e+000
      vertex  0.000000e+000 -3.837156e+001  3.805302e-002
      vertex  0.000000e+000 -3.750000e+001  1.776357e-015
    endloop
  endfacet
  facet normal -1.000000e+000  0.000000e+000  -0.000000e+000
    outer loop
      vertex  0.000000e+000 -5.000000e+001  0.000000e+000
      vertex  0.000000e+000 -3.750000e+001  1.776357e-015
      vertex  0.000000e+000  0.000000e+000 -5.000000e+001
    endloop
  endfacet
  facet normal -1.000000e+000  0.000000e+000  0.000000e+000
    outer loop
      vertex  0.000000e+000  5.000000e+001 -7.105427e-015
      vertex  0.000000e+000  0.000000e+000 -5.000000e+001
      vertex  0.000000e+000  3.750000e+001  1.776357e-015
    endloop
  endfacet
  facet normal -1.000000e+000  0.000000e+000  0.000000e+000
    outer loop
      vertex  0.000000e+000  5.000000e+001 -7.105427e-015
      vertex  0.000000e+000  3.750000e+001  1.776357e-015
      vertex  0.000000e+000  3.837156e+001  3.805302e-002
    endloop
  endfacet
  facet normal -1.000000e+000  0.000000e+000  0.000000e+000
    outer loop
      vertex  0.000000e+000  5.000000e+001 -7.105427e-015
      vertex  0.000000e+000  3.837156e+001  3.805302e-002
      vertex  0.000000e+000  3.923648e+001  1.519225e-001
    endloop
  endfacet
  facet normal -1.000000e+000  0.000000e+000  0.000000e+000
    outer loop
      vertex  0.000000e+000  5.000000e+001 -7.105427e-015
      vertex  0.000000e+000  3.923648e+001  1.519225e-001
      vertex  0.000000e+000  4.008819e+001  3.407417e-001
    endloop
  endfacet
  facet normal -1.000000e+000  0.000000e+000  0.000000e+000
    outer loop
      vertex  0.000000e+000  5.000000e+001 -7.105427e-015
      vertex  0.000000e+000  4.008819e+001  3.407417e-001
      vertex  0.000000e+000  4.092020e+001  6.030738e-001
    endloop
  endfacet
  facet normal -9.999999e-001  0.000000e+000  0.000000e+000
    outer loop
      vertex  0.000000e+000  5.000000e+001 -7.105427e-015
      vertex  0.000000e+000  4.092020e+001  6.030738e-001
      vertex  0.000000e+000  4.172618e+001  9.369221e-001
    endloop
  endfacet
  facet normal -1.000000e+000  0.000000e+000  0.000000e+000
    outer loop
      vertex  0.000000e+000  5.000000e+001 -7.105427e-015
      vertex  0.000000e+000  4.172618e+001  9.369221e-001
      vertex  0.000000e+000  4.250000e+001  1.339746e+000
    endloop
  endfacet
  facet normal -1.000000e+000  0.000000e+000  0.000000e+000
    outer loop
      vertex  0.000000e+000  5.000000e+001 -7.105427e-015
      vertex  0.000000e+000  4.250000e+001  1.339746e+000
      vertex  0.000000e+000  4.323576e+001  1.808480e+000
    endloop
  endfacet
  facet normal -1.000000e+000  0.000000e+000  0.000000e+000
    outer loop
      vertex  0.000000e+000  5.000000e+001 -7.105427e-015
      vertex  0.000000e+000  4.323576e+001  1.808480e+000
      vertex  0.000000e+000  4.392788e+001  2.339556e+000
    endloop
  endfacet
  facet normal -1.000000e+000  0.000000e+000  0.000000e+000
    outer loop
      vertex  0.000000e+000  5.000000e+001 -7.105427e-015
      vertex  0.000000e+000  4.392788e+001  2.339556e+000
      vertex  0.000000e+000  4.457107e+001  2.928932e+000
    endloop
  endfacet
  facet normal -9.999999e-001  0.000000e+000  0.000000e+000
    outer loop
      vertex  0.000000e+000  5.000000e+001 -7.105427e-015
      vertex  0.000000e+000  4.457107e+001  2.928932e+000
      vertex  0.000000e+000  4.516045e+001  3.572124e+000
    endloop
  endfacet
  facet normal -1.000000e+000  0.000000e+000  0.000000e+000
    outer loop
      vertex  0.000000e+000  5.000000e+001 -7.105427e-015
      vertex  0.000000e+000  4.516045e+001  3.572124e+000
      vertex  0.000000e+000  4.569152e+001  4.264235e+000
    endloop
  endfacet
  facet normal -1.000000e+000  0.000000e+000  0.000000e+000
    outer loop
      vertex  0.000000e+000  5.000000e+001 -7.105427e-015
      vertex  0.000000e+000  4.569152e+001  4.264235e+000
      vertex  0.000000e+000  4.616026e+001  5.000000e+000
    endloop
  endfacet
  facet normal -1.000000e+000  0.000000e+000  0.000000e+000
    outer loop
      vertex  0.000000e+000  5.000000e+001 -7.105427e-015
      vertex  0.000000e+000  4.616026e+001  5.000000e+000
      vertex  0.000000e+000  5.000000e+001  5.000000e+000
    endloop
  endfacet
  facet normal -1.000000e+000  -0.000000e+000  0.000000e+000
    outer loop
      vertex  0.000000e+000 -2.883975e+001  5.000000e+000
      vertex  0.000000e+000  2.883975e+001  5.000000e+000
      vertex  0.000000e+000 -2.930848e+001  4.264235e+000
    endloop
  endfacet
  facet normal -1.000000e+000  0.000000e+000  0.000000e+000
    outer loop
      vertex  0.000000e+000 -2.930848e+001  4.264235e+000
      vertex  0.000000e+000  2.883975e+001  5.000000e+000
      vertex  0.000000e+000  2.930848e+001  4.264235e+000
    endloop
  endfacet
  facet normal -1.000000e+000  -0.000000e+000  0.000000e+000
    outer loop
      vertex  0.000000e+000 -2.930848e+001  4.264235e+000
      vertex  0.000000e+000  2.930848e+001  4.264235e+000
      vertex  0.000000e+000 -2.983956e+001  3.572124e+000
    endloop
  endfacet
  facet normal -1.000000e+000  0.000000e+000  0.000000e+000
    outer loop
      vertex  0.000000e+000 -2.983956e+001  3.572124e+000
      vertex  0.000000e+000  2.930848e+001  4.264235e+000
      vertex  0.000000e+000  2.983956e+001  3.572124e+000
    endloop
  endfacet
  facet normal -1.000000e+000  -0.000000e+000  0.000000e+000
    outer loop
      vertex  0.000000e+000 -2.983956e+001  3.572124e+000
      vertex  0.000000e+000  2.983956e+001  3.572124e+000
      vertex  0.000000e+000 -3.042893e+001  2.928932e+000
    endloop
  endfacet
  facet normal -1.000000e+000  0.000000e+000  0.000000e+000
    outer loop
      vertex  0.000000e+000 -3.042893e+001  2.928932e+000
      vertex  0.000000e+000  2.983956e+001  3.572124e+000
      vertex  0.000000e+000  3.042893e+001  2.928932e+000
    endloop
  endfacet
  facet normal -9.999999e-001  -0.000000e+000  0.000000e+000
    outer loop
      vertex  0.000000e+000 -3.042893e+001  2.928932e+000
      vertex  0.000000e+000  3.042893e+001  2.928932e+000
      vertex  0.000000e+000 -3.107212e+001  2.339556e+000
    endloop
  endfacet
  facet normal -1.000000e+000  0.000000e+000  0.000000e+000
    outer loop
      vertex  0.000000e+000 -3.107212e+001  2.339556e+000
      vertex  0.000000e+000  3.042893e+001  2.928932e+000
      vertex  0.000000e+000  3.107212e+001  2.339556e+000
    endloop
  endfacet
  facet normal -1.000000e+000  -0.000000e+000  0.000000e+000
    outer loop
      vertex  0.000000e+000 -3.107212e+001  2.339556e+000
      vertex  0.000000e+000  3.107212e+001  2.339556e+000
      vertex  0.000000e+000 -3.176424e+001  1.808480e+000
    endloop
  endfacet
  facet normal -1.000000e+000  0.000000e+000  0.000000e+000
    outer loop
      vertex  0.000000e+000 -3.176424e+001  1.808480e+000
      vertex  0.000000e+000  3.107212e+001  2.339556e+000
      vertex  0.000000e+000  3.176424e+001  1.808480e+000
    endloop
  endfacet
  facet normal -1.000000e+000  -0.000000e+000  0.000000e+000
    outer loop
      vertex  0.000000e+000 -3.176424e+001  1.808480e+000
      vertex  0.000000e+000  3.176424e+001  1.808480e+000
      vertex  0.000000e+000 -3.250000e+001  1.339746e+000
    endloop
  endfacet
  facet normal -1.000000e+000  0.000000e+000  0.000000e+000
    outer loop
      vertex  0.000000e+000 -3.250000e+001  1.339746e+000
      vertex  0.000000e+000  3.176424e+001  1.808480e+000
      vertex  0.000000e+000  3.250000e+001  1.339746e+000
    endloop
  endfacet
  facet normal -1.000000e+000  -0.000000e+000  0.000000e+000
    outer loop
      vertex  0.000000e+000 -3.250000e+001  1.339746e+000
      vertex  0.000000e+000  3.250000e+001  1.339746e+000
      vertex  0.000000e+000 -3.327382e+001  9.369221e-001
    endloop
  endfacet
  facet normal -1.000000e+000  0.000000e+000  0.000000e+000
    outer loop
      vertex  0.000000e+000 -3.327382e+001  9.369221e-001
      vertex  0.000000e+000  3.250000e+001  1.339746e+000
      vertex  0.000000e+000  3.327382e+001  9.369221e-001
    endloop
  endfacet
  facet normal -1.000000e+000  -0.000000e+000  0.000000e+000
    outer loop
      vertex  0.000000e+000 -3.327382e+001  9.369221e-001
      vertex  0.000000e+000  3.327382e+001  9.369221e-001
      vertex  0.000000e+000 -3.407980e+001  6.030738e-001
    endloop
  endfacet
  facet normal -1.000000e+000  0.000000e+000  0.000000e+000
    outer loop
      vertex  0.000000e+000 -3.407980e+001  6.030738e-001
      vertex  0.000000e+000  3.327382e+001  9.369221e-001
      vertex  0.000000e+000  3.407980e+001  6.030738e-001
    endloop
  endfacet
  facet normal -1.000000e+000  -0.000000e+000  0.000000e+000
    outer loop
      vertex  0.000000e+000 -3.407980e+001  6.030738e-001
      vertex  0.000000e+000  3.407980e+001  6.030738e-001
      vertex  0.000000e+000 -3.491181e+001  3.407417e-001
    endloop
  endfacet
  facet normal -1.000000e+000  0.000000e+000  0.000000e+000
    outer loop
      vertex  0.000000e+000 -3.491181e+001  3.407417e-001
      vertex  0.000000e+000  3.407980e+001  6.030738e-001
      vertex  0.000000e+000  3.491181e+001  3.407417e-001
    endloop
  endfacet
  facet normal -1.000000e+000  -0.000000e+000  0.000000e+000
    outer loop
      vertex  0.000000e+000 -3.491181e+001  3.407417e-001
      vertex  0.000000e+000  3.491181e+001  3.407417e-001
      vertex  0.000000e+000 -3.576352e+001  1.519225e-001
    endloop
  endfacet
  facet normal -1.000000e+000  0.000000e+000  0.000000e+000
    outer loop
      vertex  0.000000e+000 -3.576352e+001  1.519225e-001
      vertex  0.000000e+000  3.491181e+001  3.407417e-001
      vertex  0.000000e+000  3.576352e+001  1.519225e-001
    endloop
  endfacet
  facet normal -1.000000e+000  -0.000000e+000  0.000000e+000
    outer loop
      vertex  0.000000e+000 -3.576352e+001  1.519225e-001
      vertex  0.000000e+000  3.576352e+001  1.519225e-001
      vertex  0.000000e+000 -3.662844e+001  3.805302e-002
    endloop
  endfacet
  facet normal -1.000000e+000  0.000000e+000  0.000000e+000
    outer loop
      vertex  0.000000e+000 -3.662844e+001  3.805302e-002
      vertex  0.000000e+000  3.576352e+001  1.519225e-001
      vertex  0.000000e+000  3.662844e+001  3.805302e-002
    endloop
  endfacet
  facet normal -1.000000e+000  -0.000000e+000  0.000000e+000
    outer loop
      vertex  0.000000e+000 -3.662844e+001  3.805302e-002
      vertex  0.000000e+000  3.662844e+001  3.805302e-002
      vertex  0.000000e+000 -3.750000e+001  1.776357e-015
    endloop
  endfacet
  facet normal -1.000000e+000  0.000000e+000  0.000000e+000
    outer loop
      vertex  0.000000e+000 -3.750000e+001  1.776357e-015
      vertex  0.000000e+000  3.662844e+001  3.805302e-002
      vertex  0.000000e+000  3.750000e+001  1.776357e-015
    endloop
  endfacet
  facet normal -1.000000e+000  -0.000000e+000  0.000000e+000
    outer loop
      vertex  0.000000e+000 -3.750000e+001  1.776357e-015
      vertex  0.000000e+000  3.750000e+001  1.776357e-015
      vertex  0.000000e+000  0.000000e+000 -5.000000e+001
    endloop
  endfacet
  facet normal  0.000000e+000  7.071067e-001 -7.071067e-001
    outer loop
      vertex  0.000000e+000  5.000000e+001 -7.105427e-015
      vertex  1.000000e+001  5.000000e+001 -7.105427e-015
      vertex  0.000000e+000  0.000000e+000 -5.000000e+001
    endloop
  endfacet
  facet normal  0.000000e+000  7.071067e-001 -7.071067e-001
    outer loop
      vertex  0.000000e+000  0.000000e+000 -5.000000e+001
      vertex  1.000000e+001  5.000000e+001 -7.105427e-015
      vertex  1.000000e+001  0.000000e+000 -5.000000e+001
    endloop
  endfacet
  facet normal  -0.000000e+000 -7.071067e-001 -7.071067e-001
    outer loop
      vertex  0.000000e+000  0.000000e+000 -5.000000e+001
      vertex  1.000000e+001  0.000000e+000 -5.000000e+001
      vertex  0.000000e+000 -5.000000e+001  0.000000e+000
    endloop
  endfacet
  facet normal  0.000000e+000 -7.071067e-001 -7.071067e-001
    outer loop
      vertex  0.000000e+000 -5.000000e+001  0.000000e+000
      vertex  1.000000e+001  0.000000e+000 -5.000000e+001
      vertex  1.000000e+001 -5.000000e+001  0.000000e+000
    endloop
  endfacet
endsolid STL
